<?xml version="1.0" encoding="UTF-8" standalone="no"?>
<!DOCTYPE svg PUBLIC "-//W3C//DTD SVG 1.1//EN" "http://www.w3.org/Graphics/SVG/1.1/DTD/svg11.dtd">
<svg width="100%" height="100%" viewBox="0 0 231 754" version="1.1" xmlns="http://www.w3.org/2000/svg" xmlns:xlink="http://www.w3.org/1999/xlink" xml:space="preserve" xmlns:serif="http://www.serif.com/" style="fill-rule:evenodd;clip-rule:evenodd;stroke-linejoin:round;stroke-miterlimit:2;">
    <g transform="matrix(1,0,0,1,-938.275,-318.426)">
        <g transform="matrix(4.16667,0,0,4.16667,0,0)">
            <path d="M260.001,245.328C258.355,243.65 255.032,243.717 254.143,246.233C253.835,247.031 252.391,249.426 253.757,256.054L254.929,256.054L254.929,252.848L254.956,252.499C255.125,253.118 255.352,253.777 255.58,254.493C256.579,257.638 263.149,257.736 264.917,256.412C265.402,256.048 264.316,255.215 263.359,253.073C262.151,250.367 260.864,246.208 260.001,245.328Z" style="fill:rgb(60,63,75);fill-rule:nonzero;"/>
        </g>
        <g transform="matrix(4.16667,0,0,4.16667,0,0)">
            <path d="M260.961,248.032C260.332,246.045 260.161,245.568 259.505,242.771C259.875,235.724 261.09,175.949 258.493,168.943L248.761,171.273L255.326,241.302C255.193,243.076 255.109,245.221 255.34,246.894C255.764,249.966 259.776,253.754 261.372,253.378C262.359,253.146 261.59,250.022 260.961,248.032Z" style="fill:rgb(232,157,136);fill-rule:nonzero;"/>
        </g>
        <g transform="matrix(4.16667,0,0,4.16667,0,0)">
            <path d="M247.458,244.842C245.802,240.922 242.597,246.936 242.597,246.936C241.889,247.806 241.055,249.354 238.899,250.909C235.45,253.405 230.728,256.016 233.618,256.586C235.581,256.975 238.705,257.034 241.005,256.046C244.203,254.672 246.345,252.015 246.345,252.015L245.937,255.871L247.234,255.721C247.234,255.721 249.858,250.515 247.458,244.842Z" style="fill:rgb(60,63,75);fill-rule:nonzero;"/>
        </g>
        <g transform="matrix(4.16667,0,0,4.16667,0,0)">
            <path d="M241.379,168.526C239.158,175.257 242.037,229.014 242.866,240.467C242.766,242.833 242.492,245.127 241.147,247.188C239.901,249.101 238.127,251.599 236.512,253.19C239.28,253.915 241.311,252.548 242.951,251.311C244.808,249.907 245.946,248.024 246.57,245.922C246.888,244.844 247.073,243.706 247.147,242.548L251.394,171.32L241.379,168.526Z" style="fill:rgb(232,157,136);fill-rule:nonzero;"/>
        </g>
        <g transform="matrix(4.16667,0,0,4.16667,0,0)">
            <path d="M255.571,198.639C255.747,191.815 255.957,183.783 255.957,183.783L258.196,198.479C258.937,198.42 259.674,198.355 260.411,198.279C261.419,198.177 262.425,198.054 263.428,197.925C263.748,193.394 263.983,187.63 263.769,181.728C263.405,171.649 261.327,160.856 258.629,157.259L240.125,160.344C240.125,160.344 237.522,165.558 236.425,177.821C235.958,183.022 235.856,190 236.18,197.521C242.576,198.583 249.146,198.946 255.571,198.639Z" style="fill:rgb(39,40,52);fill-rule:nonzero;"/>
        </g>
        <g transform="matrix(4.16667,0,0,4.16667,0,0)">
            <path d="M258.905,144.682L263.838,124.942C253.148,120.007 236.425,124.942 236.425,124.942C236.425,124.942 239.308,135.871 241.223,144.406L258.905,144.682Z" style="fill:rgb(139,191,196);fill-rule:nonzero;"/>
        </g>
        <g transform="matrix(4.16667,0,0,4.16667,0,0)">
            <path d="M236.425,124.942L238.48,133.478C238.48,133.478 234.163,137.769 240.125,141.826L242.593,152.085L238.339,164.948L248.17,165.923L250.18,160.994L252.032,166.033C252.032,166.033 259.653,166.059 261.558,163.833L257.397,152.024L259.862,141.666C259.862,141.666 264.688,139.099 261.814,133.7L263.84,124.942L258.161,123.24L249.447,143.175L241.141,123.847L236.425,124.942Z" style="fill:rgb(65,71,86);fill-rule:nonzero;"/>
        </g>
        <g transform="matrix(4.16667,0,0,4.16667,0,0)">
            <path d="M249.616,114.218C249.616,117.792 246.794,120.693 243.312,120.693C239.831,120.693 237.007,117.792 237.007,114.218C237.007,110.64 239.831,107.741 243.312,107.741C246.794,107.741 249.616,110.64 249.616,114.218Z" style="fill:rgb(90,46,37);fill-rule:nonzero;"/>
        </g>
        <g transform="matrix(4.16667,0,0,4.16667,0,0)">
            <path d="M265.209,97.666C265.209,107.658 259.773,115.347 249.858,115.347C239.939,115.347 233.34,105.601 233.34,95.611C233.34,85.617 239.939,79.162 249.858,79.162C259.773,79.162 265.209,87.673 265.209,97.666Z" style="fill:rgb(90,46,37);fill-rule:nonzero;"/>
        </g>
        <g transform="matrix(4.16667,0,0,4.16667,0,0)">
            <path d="M253.457,121.015C253.457,122.623 252.154,123.925 250.547,123.925L249.892,123.925C248.285,123.925 246.983,122.623 246.983,121.015L246.983,112.963C246.983,111.355 248.285,110.053 249.892,110.053L250.547,110.053C252.154,110.053 253.457,111.355 253.457,112.963L253.457,121.015Z" style="fill:rgb(206,121,106);fill-rule:nonzero;"/>
        </g>
        <g transform="matrix(4.16667,0,0,4.16667,0,0)">
            <path d="M262.669,101.596C262.669,111.041 258.394,116.303 251.198,116.458C243.538,116.626 236.595,111.041 236.595,101.596C236.595,92.148 239.516,82.406 249.632,82.406C259.54,82.406 262.669,92.148 262.669,101.596Z" style="fill:rgb(232,157,136);fill-rule:nonzero;"/>
        </g>
        <g transform="matrix(4.16667,0,0,4.16667,0,0)">
            <path d="M253.972,99.436C253.972,101.266 255.456,102.75 257.286,102.75C259.114,102.75 260.597,101.266 260.597,99.436C260.597,97.607 259.114,96.124 257.286,96.124C255.456,96.124 253.972,97.607 253.972,99.436Z" style="fill:white;fill-rule:nonzero;"/>
        </g>
        <g transform="matrix(4.16667,0,0,4.16667,0,0)">
            <path d="M259.176,99.231C259.176,100.74 258.195,101.967 256.986,101.967C255.775,101.967 254.796,100.74 254.796,99.231C254.796,97.719 255.775,96.495 256.986,96.495C258.195,96.495 259.176,97.719 259.176,99.231Z" style="fill:rgb(88,111,127);fill-rule:nonzero;"/>
        </g>
        <g transform="matrix(4.16667,0,0,4.16667,0,0)">
            <path d="M258.54,99.231C258.54,100.301 257.846,101.176 256.986,101.176C256.126,101.176 255.429,100.301 255.429,99.231C255.429,98.158 256.126,97.286 256.986,97.286C257.846,97.286 258.54,98.158 258.54,99.231Z" style="fill:rgb(61,11,16);fill-rule:nonzero;"/>
        </g>
        <g transform="matrix(4.16667,0,0,4.16667,0,0)">
            <path d="M258.64,97.39C258.64,97.681 258.28,97.919 257.836,97.919C257.394,97.919 257.036,97.681 257.036,97.39C257.036,97.096 257.394,96.859 257.836,96.859C258.28,96.859 258.64,97.096 258.64,97.39Z" style="fill:white;fill-rule:nonzero;"/>
        </g>
        <g transform="matrix(4.16667,0,0,4.16667,0,0)">
            <path d="M249.602,105.063C249.602,105.063 251.239,107.832 253.009,105.008L249.602,105.063Z" style="fill:rgb(206,121,106);fill-rule:nonzero;"/>
        </g>
        <g transform="matrix(4.16667,0,0,4.16667,0,0)">
            <path d="M247.906,99.436C247.906,101.266 246.424,102.75 244.593,102.75C242.766,102.75 241.281,101.266 241.281,99.436C241.281,97.609 242.766,96.124 244.593,96.124C246.424,96.124 247.906,97.609 247.906,99.436Z" style="fill:white;fill-rule:nonzero;"/>
        </g>
        <g transform="matrix(4.16667,0,0,4.16667,0,0)">
            <path d="M246.665,99.231C246.665,100.742 245.738,101.967 244.593,101.967C243.45,101.967 242.523,100.742 242.523,99.231C242.523,97.719 243.45,96.495 244.593,96.495C245.738,96.495 246.665,97.719 246.665,99.231Z" style="fill:rgb(88,111,127);fill-rule:nonzero;"/>
        </g>
        <g transform="matrix(4.16667,0,0,4.16667,0,0)">
            <path d="M246.065,99.231C246.065,100.303 245.405,101.174 244.593,101.174C243.78,101.174 243.122,100.303 243.122,99.231C243.122,98.158 243.78,97.286 244.593,97.286C245.405,97.286 246.065,98.158 246.065,99.231Z" style="fill:rgb(61,11,16);fill-rule:nonzero;"/>
        </g>
        <g transform="matrix(4.16667,0,0,4.16667,0,0)">
            <path d="M246.159,97.39C246.159,97.681 245.817,97.919 245.398,97.919C244.981,97.919 244.64,97.681 244.64,97.39C244.64,97.098 244.981,96.859 245.398,96.859C245.817,96.859 246.159,97.098 246.159,97.39Z" style="fill:white;fill-rule:nonzero;"/>
        </g>
        <g transform="matrix(4.16667,0,0,4.16667,0,0)">
            <path d="M247.401,104.707C247.401,106.209 245.843,107.429 243.919,107.429C241.998,107.429 240.437,106.209 240.437,104.707C240.437,103.206 241.998,101.985 243.919,101.985C245.843,101.985 247.401,103.206 247.401,104.707Z" style="fill:rgb(232,123,109);fill-rule:nonzero;"/>
        </g>
        <g transform="matrix(4.16667,0,0,4.16667,0,0)">
            <path d="M261.169,104.707C261.169,106.209 259.609,107.429 257.687,107.429C255.765,107.429 254.204,106.209 254.204,104.707C254.204,103.206 255.765,101.985 257.687,101.985C259.609,101.985 261.169,103.206 261.169,104.707Z" style="fill:rgb(232,123,109);fill-rule:nonzero;"/>
        </g>
        <g transform="matrix(4.16667,0,0,4.16667,0,0)">
            <path d="M262.796,99.946C262.796,99.946 266.375,95.055 267.413,99.751C268.241,103.487 264.895,106.24 262.827,105.543C260.763,104.848 262.796,99.946 262.796,99.946Z" style="fill:rgb(232,157,136);fill-rule:nonzero;"/>
        </g>
        <g transform="matrix(4.16667,0,0,4.16667,0,0)">
            <path d="M262.758,100.814C262.758,100.814 265.293,97.731 265.941,99.184C266.59,100.632 266.205,102.342 266.205,102.342C266.205,102.342 265.941,100.39 264.396,101.295C264.396,101.295 265.496,104.502 262.75,103.285C262.75,103.285 261.674,102.216 262.758,100.814Z" style="fill:rgb(206,121,106);fill-rule:nonzero;"/>
        </g>
        <g transform="matrix(4.16667,0,0,4.16667,0,0)">
            <path d="M236.611,99.946C236.611,99.946 233.032,95.055 231.992,99.751C231.166,103.487 234.511,106.24 236.579,105.543C238.644,104.848 236.611,99.946 236.611,99.946Z" style="fill:rgb(232,157,136);fill-rule:nonzero;"/>
        </g>
        <g transform="matrix(4.16667,0,0,4.16667,0,0)">
            <path d="M236.647,100.814C236.647,100.814 234.112,97.731 233.464,99.184C232.817,100.632 233.203,102.342 233.203,102.342C233.203,102.342 233.464,100.39 235.009,101.295C235.009,101.295 233.909,104.502 236.656,103.285C236.656,103.285 237.732,102.216 236.647,100.814Z" style="fill:rgb(206,121,106);fill-rule:nonzero;"/>
        </g>
        <g transform="matrix(4.16667,0,0,4.16667,0,0)">
            <path d="M240.558,95.183C240.558,95.183 243.688,90.96 248.537,94.556C248.537,94.556 244.626,92.992 240.558,95.183Z" style="fill:rgb(52,27,24);fill-rule:nonzero;"/>
        </g>
        <g transform="matrix(4.16667,0,0,4.16667,0,0)">
            <path d="M254.208,94.484C254.208,94.484 257.87,90.833 261.812,95.168C261.812,95.168 258.403,92.99 254.208,94.484Z" style="fill:rgb(52,27,24);fill-rule:nonzero;"/>
        </g>
        <g transform="matrix(4.16667,0,0,4.16667,0,0)">
            <path d="M242.457,123.571C242.039,122.675 246.808,119.151 246.808,119.151C246.808,119.151 247.526,123.845 249.789,125.216L246.021,130.425C246.021,130.425 244.374,127.682 242.457,123.571Z" style="fill:rgb(198,229,233);fill-rule:nonzero;"/>
        </g>
        <g transform="matrix(4.16667,0,0,4.16667,0,0)">
            <path d="M257.163,123.571C257.582,122.675 253.052,119.186 253.052,119.186C253.052,119.186 252.094,123.845 249.831,125.216L253.599,130.425C253.599,130.425 255.245,127.682 257.163,123.571Z" style="fill:rgb(198,229,233);fill-rule:nonzero;"/>
        </g>
        <g transform="matrix(4.16667,0,0,4.16667,0,0)">
            <path d="M245.265,81.421C245.265,81.421 249.172,73.609 255.135,77.517C261.096,81.421 268.705,89.647 270.556,83.685C270.556,83.685 267.678,99.518 255.957,91.91C244.237,84.302 245.265,81.421 245.265,81.421Z" style="fill:rgb(90,46,37);fill-rule:nonzero;"/>
        </g>
        <g transform="matrix(4.16667,0,0,4.16667,0,0)">
            <path d="M250.201,83.273C250.201,83.273 245.471,92.526 236.219,98.488C236.219,98.488 233.877,95.584 233.75,91.91C233.5,84.517 239.714,70.524 250.201,83.273Z" style="fill:rgb(90,46,37);fill-rule:nonzero;"/>
        </g>
        <g transform="matrix(4.16667,0,0,4.16667,0,0)">
            <path d="M250.201,83.273L247.527,83.685C247.527,83.685 247.115,92.32 256.161,95.403C256.161,95.403 249.996,89.853 250.201,83.273Z" style="fill:rgb(90,46,37);fill-rule:nonzero;"/>
        </g>
        <g transform="matrix(4.16667,0,0,4.16667,0,0)">
            <path d="M249.447,143.175L249.047,142.243C249.314,142.241 249.587,142.234 249.864,142.222L249.447,143.175Z" style="fill:rgb(123,166,168);fill-rule:nonzero;"/>
        </g>
        <g transform="matrix(4.16667,0,0,4.16667,0,0)">
            <path d="M249.772,145.094C247.063,145.094 243.924,143.96 240.537,140.638C240.537,140.638 243.83,142.244 248.86,142.244C248.922,142.244 248.984,142.244 249.047,142.243L249.447,143.175L249.864,142.222C252.672,142.104 255.947,141.465 259.453,139.816C259.453,139.816 255.614,145.094 249.772,145.094Z" style="fill:rgb(58,60,74);fill-rule:nonzero;"/>
        </g>
        <g transform="matrix(4.16667,0,0,4.16667,0,0)">
            <path d="M250.937,143.721C250.937,144.317 250.453,144.801 249.858,144.801C249.262,144.801 248.778,144.317 248.778,143.721C248.778,143.125 249.262,142.643 249.858,142.643C250.453,142.643 250.937,143.125 250.937,143.721Z" style="fill:rgb(39,40,52);fill-rule:nonzero;"/>
        </g>
        <g transform="matrix(4.16667,0,0,4.16667,0,0)">
            <path d="M251.074,151.123C251.074,151.719 250.59,152.203 249.996,152.203C249.398,152.203 248.916,151.719 248.916,151.123C248.916,150.527 249.398,150.044 249.996,150.044C250.59,150.044 251.074,150.527 251.074,151.123Z" style="fill:rgb(39,40,52);fill-rule:nonzero;"/>
        </g>
        <g transform="matrix(4.16667,0,0,4.16667,0,0)">
            <path d="M251.074,158.525C251.074,159.121 250.59,159.603 249.996,159.603C249.398,159.603 248.916,159.121 248.916,158.525C248.916,157.929 249.398,157.445 249.996,157.445C250.59,157.445 251.074,157.929 251.074,158.525Z" style="fill:rgb(39,40,52);fill-rule:nonzero;"/>
        </g>
        <g transform="matrix(4.16667,0,0,4.16667,0,0)">
            <path d="M247.115,106.711C247.115,106.711 252.462,109.179 254.723,106.917C254.723,106.917 252.667,112.058 247.115,106.711Z" style="fill:rgb(205,74,67);fill-rule:nonzero;"/>
        </g>
        <g transform="matrix(4.16667,0,0,4.16667,0,0)">
            <path d="M247.906,99.436C247.906,99.436 248.175,97.304 246.087,96.227C242.9,94.582 241.153,98.385 240.125,99.003C240.125,99.003 240.793,99.666 241.281,99.436C241.281,99.436 244.751,93.758 247.906,99.436Z" style="fill:rgb(48,38,42);fill-rule:nonzero;"/>
        </g>
        <g transform="matrix(4.16667,0,0,4.16667,0,0)">
            <path d="M253.913,99.03C253.913,99.03 253.644,97.137 255.731,96.18C258.918,94.721 260.665,98.098 261.693,98.645C261.693,98.645 261.026,99.234 260.536,99.03C260.536,99.03 257.069,93.991 253.913,99.03Z" style="fill:rgb(48,38,42);fill-rule:nonzero;"/>
        </g>
        <g transform="matrix(4.16667,0,0,4.16667,0,0)">
            <path d="M250.15,171.569L233.71,166.138L238.617,141.666L256.486,145.717L250.15,171.569Z" style="fill:rgb(176,170,79);fill-rule:nonzero;"/>
        </g>
        <g transform="matrix(4.16667,0,0,4.16667,0,0)">
            <path d="M253.069,161.816C253.069,161.816 251.8,161.995 251.168,161.906C250.721,161.841 248.119,161.556 246.777,162.497C246.56,162.506 246.348,162.547 246.146,162.638C245.282,163.031 244.759,164.099 244.7,165.161C244.645,166.129 245.238,166.651 245.995,167.072C246.95,167.89 247.984,168.674 249.107,169.225C249.792,169.563 250.719,169.678 251.37,169.214C251.617,169.035 251.73,168.753 251.795,168.466C251.837,168.286 251.824,168.071 251.788,167.892C251.764,167.785 252,167.673 252.044,167.597C252.196,167.328 252.271,166.989 252.21,166.678C252.102,166.132 252.635,165.623 252.615,165.042C252.581,164.083 251.13,163.271 250.373,163.251L250.225,163.243C251.16,163.06 252.752,162.638 253.069,161.816Z" style="fill:rgb(232,157,136);fill-rule:nonzero;"/>
        </g>
        <g transform="matrix(4.16667,0,0,4.16667,0,0)">
            <path d="M246.706,162.5L245.471,166.886C244.723,166.708 243.999,166.519 243.299,166.33C228.923,162.354 225.186,155.369 225.186,155.369C226.828,139.61 236.425,124.942 236.425,124.942C238.345,126.311 239.438,133.987 239.438,133.987C238.345,141.118 232.037,151.809 232.037,151.809L245.036,161.285L246.706,162.5Z" style="fill:rgb(65,71,86);fill-rule:nonzero;"/>
        </g>
        <g transform="matrix(4.16667,0,0,4.16667,0,0)">
            <path d="M246.706,162.5L245.471,166.886C244.723,166.708 243.999,166.519 243.299,166.33L245.036,161.285L246.706,162.5Z" style="fill:rgb(198,229,233);fill-rule:nonzero;"/>
        </g>
        <g transform="matrix(4.16667,0,0,4.16667,0,0)">
            <g transform="matrix(1,0,0,1,-12.9261,25.9321)">
                <g transform="matrix(1,0,0,1,-395.524,-222.323)">
                    <path d="M678.275,330.244C676.671,328.483 688.144,340.94 688.144,343.538C688.144,346.006 672.242,356.151 672.242,356.151L670.874,352.86C670.874,352.86 679.373,343.538 681.839,342.169C681.839,342.169 675.807,336.413 674.712,334.768C673.613,333.124 678.275,330.244 678.275,330.244Z" style="fill:rgb(206,121,106);fill-rule:nonzero;"/>
                </g>
                <g transform="matrix(1,0,0,1,-395.524,-222.323)">
                    <path d="M663.114,354.912C663.114,355.031 663.221,355.161 663.35,355.148C664.818,355.004 665.938,353.933 667.386,354.16C665.934,354.842 664.68,356.022 664.856,357.764C664.878,357.979 665.094,358.067 665.262,357.93C666.299,357.098 667.495,356.352 668.887,356.63C669.484,356.749 670.18,356.964 670.799,356.894C671.718,356.785 672.491,356.388 672.955,355.55C673.762,354.092 673.46,352.346 671.655,351.988L671.538,351.997C670.869,351.747 670.266,351.435 669.732,350.884C669.212,350.348 668.731,349.759 668.171,349.264C667.419,348.6 666.603,348.081 665.608,348.527C665.457,348.592 665.469,348.794 665.56,348.899C665.998,349.414 666.51,349.903 667.048,350.371C666.511,350.25 665.966,350.192 665.411,350.235C664.416,350.318 663.245,350.942 663.271,352.06C663.274,352.199 663.377,352.284 663.51,352.297C664.425,352.389 665.341,352.374 666.253,352.459C664.837,352.853 663.097,353.307 663.114,354.912Z" style="fill:rgb(232,157,136);fill-rule:nonzero;"/>
                </g>
                <g transform="matrix(1,0,0,1,-395.524,-222.323)">
                    <path d="M670.05,329.88C671.49,332.597 680.949,342.169 680.949,342.169C679.415,343.244 674.896,347.642 672.708,349.806C671.962,350.537 671.49,351.011 671.49,351.011L673.956,355.535C674.489,355.265 675.006,355.001 675.503,354.731C685.426,349.367 688.966,343.404 688.966,343.404C688.144,337.44 672.108,321.333 672.108,321.333C669.847,322.907 670.05,329.88 670.05,329.88Z" style="fill:rgb(65,71,86);fill-rule:nonzero;"/>
                </g>
                <g transform="matrix(1,0,0,1,-395.524,-222.323)">
                    <path d="M671.49,351.011L673.956,355.535C674.489,355.265 675.006,355.001 675.503,354.731L672.708,349.806C671.962,350.537 671.49,351.011 671.49,351.011Z" style="fill:rgb(198,229,233);fill-rule:nonzero;"/>
                </g>
            </g>
        </g>
        <g transform="matrix(4.16667,0,0,4.16667,0,0)">
            <path d="M249.119,130.358C249.119,130.698 249.394,130.975 249.736,130.975C250.077,130.975 250.353,130.698 250.353,130.358C250.353,130.016 250.077,129.741 249.736,129.741C249.394,129.741 249.119,130.016 249.119,130.358Z" style="fill:rgb(198,229,233);fill-rule:nonzero;"/>
        </g>
        <g transform="matrix(4.16667,0,0,4.16667,0,0)">
            <path d="M249.119,135.292C249.119,135.633 249.394,135.907 249.736,135.907C250.077,135.907 250.353,135.633 250.353,135.292C250.353,134.95 250.077,134.675 249.736,134.675C249.394,134.675 249.119,134.95 249.119,135.292Z" style="fill:rgb(198,229,233);fill-rule:nonzero;"/>
        </g>
        <g transform="matrix(4.16667,0,0,4.16667,0,0)">
            <path d="M261.866,105.274C261.866,105.839 262.328,106.3 262.896,106.3C263.463,106.3 263.923,105.839 263.923,105.274C263.923,104.707 263.463,104.245 262.896,104.245C262.328,104.245 261.866,104.707 261.866,105.274Z" style="fill:rgb(235,232,60);fill-rule:nonzero;"/>
        </g>
        <g transform="matrix(4.16667,0,0,4.16667,0,0)">
            <path d="M235.96,105.686C235.96,106.251 236.421,106.711 236.988,106.711C237.555,106.711 238.016,106.251 238.016,105.686C238.016,105.117 237.555,104.656 236.988,104.656C236.421,104.656 235.96,105.117 235.96,105.686Z" style="fill:rgb(235,232,60);fill-rule:nonzero;"/>
        </g>
    </g>
</svg>
